<svg host="app.diagrams.net" xmlns="http://www.w3.org/2000/svg" version="1.1" width="760" height="1180" viewBox="0 0 760 1180" content="&lt;mxfile host=&quot;app.diagrams.net&quot; modified=&quot;2026-05-13T00:00:00.000Z&quot; agent=&quot;Codex&quot; version=&quot;24.7.17&quot;&gt;&lt;diagram id=&quot;journey-gruppen-flow&quot; name=&quot;Gruppen-Flow&quot;&gt;&lt;mxGraphModel&gt;&lt;root&gt;&lt;mxCell id=&quot;0&quot;/&gt;&lt;mxCell id=&quot;1&quot; parent=&quot;0&quot;/&gt;&lt;mxCell id=&quot;note&quot; value=&quot;Klassischer Workflow: Start, Aktivitaeten als Rechtecke, Entscheidung als Raute, Ja/Nein-Pfade, Ende.&quot; style=&quot;text;html=1;&quot; vertex=&quot;1&quot; parent=&quot;1&quot;&gt;&lt;mxGeometry x=&quot;40&quot; y=&quot;40&quot; width=&quot;520&quot; height=&quot;40&quot; as=&quot;geometry&quot;/&gt;&lt;/mxCell&gt;&lt;/root&gt;&lt;/mxGraphModel&gt;&lt;/diagram&gt;&lt;/mxfile&gt;">
  <defs>
    <pattern id="grid-group" width="24" height="24" patternUnits="userSpaceOnUse">
      <path d="M24 0H0V24" fill="none" stroke="#edf6ef" stroke-width="1"/>
    </pattern>
    <marker id="arrow-group" markerWidth="12" markerHeight="12" refX="10" refY="6" orient="auto">
      <path d="M2,2 L10,6 L2,10 Z" fill="#241f33"/>
    </marker>
  </defs>
  <rect width="760" height="1180" fill="#fbfffc"/>
  <rect width="760" height="1180" fill="url(#grid-group)" opacity="0.78"/>
  <text x="380" y="42" text-anchor="middle" font-family="Inter, Arial, sans-serif" font-size="24" font-weight="800" fill="#241f33">Gruppen-Flow: Aktivitaet organisieren</text>
  <text x="380" y="68" text-anchor="middle" font-family="Inter, Arial, sans-serif" font-size="14" fill="#6f6a80">Persona: Sara Baumann</text>

  <g font-family="Inter, Arial, sans-serif" font-size="15" fill="#241f33" stroke="#241f33" stroke-width="2">
    <rect x="270" y="95" width="220" height="58" rx="29" fill="#ffffff"/>
    <text x="380" y="131" text-anchor="middle" stroke="none" font-weight="700">Start</text>
    <path d="M380 153V185" fill="none" marker-end="url(#arrow-group)"/>

    <rect x="250" y="190" width="260" height="64" fill="#ffffff"/>
    <text x="380" y="215" text-anchor="middle" stroke="none">Kategorien oder</text>
    <text x="380" y="235" text-anchor="middle" stroke="none">Wishlist oeffnen</text>
    <path d="M380 254V286" fill="none" marker-end="url(#arrow-group)"/>

    <rect x="250" y="292" width="260" height="64" fill="#ffffff"/>
    <text x="380" y="317" text-anchor="middle" stroke="none">Personen, Budget,</text>
    <text x="380" y="337" text-anchor="middle" stroke="none">Dauer und Ort filtern</text>
    <path d="M380 356V388" fill="none" marker-end="url(#arrow-group)"/>

    <rect x="250" y="394" width="260" height="64" fill="#ffffff"/>
    <text x="380" y="419" text-anchor="middle" stroke="none">Mehrere Optionen</text>
    <text x="380" y="439" text-anchor="middle" stroke="none">speichern oder teilen</text>
    <path d="M380 458V490" fill="none" marker-end="url(#arrow-group)"/>

    <rect x="250" y="496" width="260" height="64" fill="#ffffff" stroke-dasharray="8 6"/>
    <text x="380" y="521" text-anchor="middle" stroke="none">Gap: echte</text>
    <text x="380" y="541" text-anchor="middle" stroke="none">Gruppenabstimmung</text>
    <path d="M380 560V592" fill="none" marker-end="url(#arrow-group)"/>

    <polygon points="380,596 500,676 380,756 260,676" fill="#fff8e8"/>
    <text x="380" y="672" text-anchor="middle" stroke="none" font-weight="700">Gruppe ist</text>
    <text x="380" y="692" text-anchor="middle" stroke="none" font-weight="700">einverstanden?</text>

    <path d="M260 676H140V426H244" fill="none" marker-end="url(#arrow-group)"/>
    <text x="202" y="660" text-anchor="middle" stroke="none" font-size="14" fill="#6f6a80">Nein</text>
    <path d="M380 756V788" fill="none" marker-end="url(#arrow-group)"/>
    <text x="405" y="779" stroke="none" font-size="14" fill="#6f6a80">Ja</text>

    <rect x="250" y="794" width="260" height="64" fill="#ffffff"/>
    <text x="380" y="819" text-anchor="middle" stroke="none">Termin planen</text>
    <text x="380" y="839" text-anchor="middle" stroke="none">und Kalender verwalten</text>
    <path d="M380 858V890" fill="none" marker-end="url(#arrow-group)"/>

    <rect x="250" y="896" width="260" height="64" fill="#ffffff"/>
    <text x="380" y="921" text-anchor="middle" stroke="none">Aktivitaet durchfuehren</text>
    <text x="380" y="941" text-anchor="middle" stroke="none">und abschliessen</text>
    <path d="M380 960V992" fill="none" marker-end="url(#arrow-group)"/>

    <rect x="250" y="998" width="260" height="64" fill="#ffffff"/>
    <text x="380" y="1023" text-anchor="middle" stroke="none">History oder</text>
    <text x="380" y="1043" text-anchor="middle" stroke="none">Community teilen</text>
    <path d="M380 1062V1094" fill="none" marker-end="url(#arrow-group)"/>

    <rect x="270" y="1100" width="220" height="58" rx="29" fill="#ffffff"/>
    <text x="380" y="1136" text-anchor="middle" stroke="none" font-weight="700">Ende</text>
  </g>
</svg>
